<svg width="61" height="46" xmlns="http://www.w3.org/2000/svg" xmlns:xlink="http://www.w3.org/1999/xlink" xml:space="preserve" overflow="hidden"><g transform="translate(-478 -606)"><path d="M44.2692 9.98553C44.2692 9.78582 44.4689 9.65268 44.6686 9.65268 44.8683 9.65268 45.0014 9.78582 45.0014 9.98553 45.0014 10.1852 44.8017 10.3184 44.6686 10.3184 44.4023 10.3849 44.2692 10.1852 44.2692 9.98553ZM44.3357 10.9841 44.8683 10.9841 44.8683 14.3792 44.3357 14.3792 44.3357 10.9841Z" fill="#1F1887" transform="matrix(1.00549 0 0 1 478.078 606)"/><path d="M49.4617 10.9841 49.4617 14.6454C49.4617 15.644 48.6628 16.3763 47.7308 16.3763 46.9986 16.3763 46.3328 15.9103 46.0666 15.178L46.5326 14.9783C46.6657 15.4443 47.1317 15.8437 47.7308 15.8437 48.3965 15.8437 48.9957 15.3111 48.9957 14.5789L48.9957 13.9797C48.6628 14.3126 48.2634 14.5123 47.7308 14.5123 46.7323 14.5123 46 13.7135 46 12.7815 46 11.7829 46.7988 11.0507 47.7308 11.0507 48.1968 11.0507 48.6628 11.2504 48.9291 11.5166L48.9291 11.1172 49.4617 11.1172ZM48.9291 12.7149C48.9291 12.0492 48.3965 11.4501 47.6643 11.4501 46.9986 11.4501 46.3994 11.9826 46.3994 12.7149 46.3994 13.3806 46.932 13.9797 47.6643 13.9797 48.3965 13.9132 48.9291 13.3806 48.9291 12.7149Z" fill="#1F1887" transform="matrix(1.00549 0 0 1 478.078 606)"/><path d="M50.6599 9.98553C50.6599 9.78582 50.8596 9.65268 51.0593 9.65268 51.259 9.65268 51.3922 9.78582 51.3922 9.98553 51.3922 10.1852 51.1925 10.3184 51.0593 10.3184 50.8596 10.3849 50.6599 10.1852 50.6599 9.98553ZM50.7931 10.9841 51.3256 10.9841 51.3256 14.3792 50.7931 14.3792 50.7931 10.9841Z" fill="#1F1887" transform="matrix(1.00549 0 0 1 478.078 606)"/><path d="M53.2561 11.5166 53.2561 13.4472C53.2561 13.78 53.5224 13.9797 53.7887 13.9797L54.1881 13.9797 54.1881 14.3792C54.1216 14.4457 53.9219 14.5123 53.7221 14.5123 53.1896 14.5123 52.7236 14.1129 52.7236 13.5803L52.7236 11.5832 52.1245 11.5832 52.1245 11.0507 52.7236 11.0507 52.7236 9.58611 53.2561 9.58611 53.2561 11.0507 54.1881 11.0507 54.1881 11.5832 53.2561 11.5832Z" fill="#1F1887" transform="matrix(1.00549 0 0 1 478.078 606)"/><path d="M58.4486 13.9797 58.4486 14.4457C58.3821 14.5123 58.3155 14.5123 58.1823 14.5123 57.7829 14.5123 57.5166 14.246 57.3835 13.9132 57.1172 14.3126 56.6512 14.5123 56.0521 14.5123 55.3198 14.5123 54.9204 14.1129 54.9204 13.5803 54.9204 12.9812 55.3864 12.6483 56.0521 12.6483L57.3169 12.6483 57.3169 12.3821C57.3169 11.8495 56.9175 11.5832 56.3849 11.5832 55.8524 11.5832 55.453 11.8495 55.453 12.3821L54.9204 12.3821C54.9204 11.5832 55.5861 11.0507 56.3849 11.0507 57.1838 11.0507 57.8495 11.5832 57.8495 12.3821L57.8495 13.6469C57.8495 13.9797 57.9826 14.1129 58.1823 14.1129L58.4486 14.1129ZM57.3169 13.2475 57.3169 13.0478 56.1187 13.0478C55.7192 13.0478 55.453 13.2475 55.453 13.5803 55.453 13.9132 55.7192 14.1129 56.1187 14.1129 56.7178 13.9797 57.1838 13.7135 57.3169 13.2475Z" fill="#1F1887" transform="matrix(1.00549 0 0 1 478.078 606)"/><path d="M59.1143 8.18813 59.6469 8.18813 59.6469 14.4457 59.1143 14.4457 59.1143 8.18813Z" fill="#1F1887" transform="matrix(1.00549 0 0 1 478.078 606)"/><path d="M43.2041 19.9711 43.2041 17.7742 43.7366 17.7742 43.7366 19.9045C43.7366 20.437 44.0695 20.7033 44.4689 20.7033 44.9349 20.7033 45.2012 20.3705 45.2012 19.9045L45.2012 17.7742 45.7337 17.7742 45.7337 19.9711C45.7337 20.7699 45.2012 21.2359 44.4689 21.2359 43.7366 21.2359 43.2041 20.7699 43.2041 19.9711Z" fill="#1F1887" transform="matrix(1.00549 0 0 1 478.078 606)"/><path d="M48.6628 17.7077C48.1968 17.7077 47.7308 17.9074 47.398 18.2402L47.398 15.8437C47.1983 15.7771 47.0651 15.7771 46.8654 15.7106L46.8654 21.2359 47.398 21.2359 47.398 20.7699C47.7308 21.1027 48.1302 21.3025 48.6628 21.3025 49.6614 21.3025 50.3936 20.5036 50.3936 19.5716 50.3936 18.6397 49.5948 17.7077 48.6628 17.7077ZM48.6628 20.7033C47.9971 20.7033 47.398 20.1708 47.398 19.4385 47.398 18.7728 47.9305 18.1737 48.6628 18.1737 49.3285 18.1737 49.9276 18.7062 49.9276 19.4385 49.8611 20.1708 49.3285 20.7033 48.6628 20.7033Z" fill="#1F1887" transform="matrix(1.00549 0 0 1 478.078 606)"/><path d="M51.3922 14.9117 51.9247 14.9117 51.9247 21.1693 51.3922 21.1693 51.3922 14.9117Z" fill="#1F1887" transform="matrix(1.00549 0 0 1 478.078 606)"/><path d="M53.123 16.7757C53.123 16.576 53.3227 16.4428 53.5224 16.4428 53.7221 16.4428 53.8553 16.576 53.8553 16.7757 53.8553 16.9754 53.6556 17.1085 53.5224 17.1085 53.3227 17.1751 53.123 16.9754 53.123 16.7757ZM53.2561 17.7742 53.7887 17.7742 53.7887 21.1693 53.2561 21.1693 53.2561 17.7742Z" fill="#1F1887" transform="matrix(1.00549 0 0 1 478.078 606)"/><path d="M54.8538 19.5051C54.8538 18.5065 55.6527 17.7742 56.5847 17.7742 57.3835 17.7742 58.0492 18.3068 58.2489 18.9725L57.7164 18.9725C57.5166 18.5731 57.1172 18.3068 56.5847 18.3068 55.919 18.3068 55.3198 18.8394 55.3198 19.5716 55.3198 20.3039 55.8524 20.8365 56.5847 20.8365 57.0506 20.8365 57.5166 20.5702 57.7164 20.1708L58.2489 20.1708C58.0492 20.903 57.3835 21.369 56.5847 21.369 55.5861 21.2359 54.8538 20.437 54.8538 19.5051Z" fill="#1F1887" transform="matrix(1.00549 0 0 1 478.078 606)"/><path d="M44.4689 24.6975 44.4689 24.8307C44.4689 26.2952 43.2706 27.4269 41.8727 27.4269 40.4081 27.4269 39.2764 26.2287 39.2764 24.8307 39.2764 23.3661 40.4081 22.2344 41.8727 22.2344 42.8712 22.2344 43.67 22.767 44.136 23.5658L43.67 23.8321C43.3372 23.233 42.6715 22.767 41.8727 22.767 40.741 22.767 39.809 23.699 39.809 24.8307 39.809 25.9624 40.741 26.8944 41.8727 26.8944 42.8712 26.8944 43.7366 26.1621 43.9363 25.1635L41.8727 25.1635 41.8727 24.631 44.4689 24.631Z" fill="#1F1887" transform="matrix(1.00549 0 0 1 478.078 606)"/><path d="M45.2677 25.6961C45.2677 24.6975 46.0666 23.9653 46.9986 23.9653 47.9971 23.9653 48.7294 24.7641 48.7294 25.6961 48.7294 26.6946 47.9305 27.4269 46.9986 27.4269 46.0666 27.4935 45.2677 26.6946 45.2677 25.6961ZM48.2634 25.6961C48.2634 25.0304 47.7308 24.4313 46.9986 24.4313 46.3328 24.4313 45.7337 24.9638 45.7337 25.6961 45.7337 26.4284 46.2663 26.9609 46.9986 26.9609 47.7308 26.9609 48.2634 26.4284 48.2634 25.6961Z" fill="#1F1887" transform="matrix(1.00549 0 0 1 478.078 606)"/><path d="M49.5282 25.6961C49.5282 24.6975 50.3271 23.9653 51.259 23.9653 52.2576 23.9653 52.9899 24.7641 52.9899 25.6961 52.9899 26.6946 52.191 27.4269 51.259 27.4269 50.3271 27.4935 49.5282 26.6946 49.5282 25.6961ZM52.5239 25.6961C52.5239 25.0304 51.9913 24.4313 51.259 24.4313 50.5933 24.4313 49.9942 24.9638 49.9942 25.6961 49.9942 26.4284 50.5268 26.9609 51.259 26.9609 51.9913 26.9609 52.5239 26.4284 52.5239 25.6961Z" fill="#1F1887" transform="matrix(1.00549 0 0 1 478.078 606)"/><path d="M57.3835 21.1693 57.3835 27.4269 56.8509 27.4269 56.8509 26.9609C56.5181 27.2938 56.1187 27.4935 55.5861 27.4935 54.5876 27.4935 53.8553 26.6946 53.8553 25.7627 53.8553 24.7641 54.6541 24.0318 55.5861 24.0318 56.0521 24.0318 56.5181 24.2315 56.8509 24.5644L56.8509 21.3025 57.3835 21.3025ZM56.8509 25.6961C56.8509 25.0304 56.3184 24.4313 55.5861 24.4313 54.9204 24.4313 54.3213 24.9638 54.3213 25.6961 54.3213 26.4284 54.8538 26.9609 55.5861 26.9609 56.2518 26.9609 56.8509 26.4284 56.8509 25.6961Z" fill="#1F1887" transform="matrix(1.00549 0 0 1 478.078 606)"/><path d="M58.2489 26.7612 58.7815 26.5615C58.848 26.8278 59.1143 26.9609 59.4472 26.9609 59.78 26.9609 59.9797 26.7612 59.9797 26.4949 59.9797 26.2287 59.78 26.0955 59.3806 25.9624 58.7815 25.7627 58.4486 25.4298 58.4486 24.8973 58.4486 24.2981 58.9146 23.9653 59.4472 23.9653 59.8466 23.9653 60.3126 24.2315 60.4457 24.4978L59.9132 24.7641C59.8466 24.5644 59.6469 24.4978 59.3806 24.4978 59.1143 24.4978 58.9146 24.631 58.9146 24.8973 58.9146 25.1635 59.1143 25.2967 59.5137 25.4964 59.9797 25.6961 60.4457 25.8958 60.4457 26.4949 60.4457 27.0941 59.9797 27.4935 59.3806 27.4935 58.9146 27.4935 58.3821 27.1606 58.2489 26.7612Z" fill="#1F1887" transform="matrix(1.00549 0 0 1 478.078 606)"/><path d="M40.1418 31.1548 40.1418 31.1548 39.6758 32.2865 39.4095 32.2865 40.741 29.1577 42.0724 32.2865 41.8061 32.2865 41.3401 31.2214 41.3401 31.1548 40.741 29.6903 40.1418 31.1548ZM40.0087 31.0883 41.4067 31.0883 41.4732 31.288 39.9421 31.288 40.0087 31.0883Z" fill="#1F1887" transform="matrix(1.00549 0 0 1 478.078 606)"/><path d="M42.6715 28.958 42.6715 32.3531 42.4718 32.3531 42.4718 28.958 42.6715 28.958Z" fill="#1F1887" transform="matrix(1.00549 0 0 1 478.078 606)"/><path d="M43.5369 28.958 43.5369 32.3531 43.3372 32.3531 43.3372 28.958 43.5369 28.958Z" fill="#1F1887" transform="matrix(1.00549 0 0 1 478.078 606)"/><path d="M44.2692 29.2909C44.2692 29.2909 44.3357 29.2243 44.4023 29.2243 44.4689 29.2243 44.4689 29.2243 44.5355 29.2909 44.5355 29.2909 44.602 29.3575 44.602 29.424 44.602 29.4906 44.602 29.4906 44.5355 29.5572 44.5355 29.5572 44.4689 29.6237 44.4023 29.6237 44.3357 29.6237 44.3357 29.6237 44.2692 29.5572 44.2692 29.5572 44.2026 29.4906 44.2026 29.424 44.2692 29.3575 44.2692 29.3575 44.2692 29.2909ZM44.5355 30.356 44.5355 32.3531 44.3357 32.3531 44.3357 30.356 44.5355 30.356Z" fill="#1F1887" transform="matrix(1.00549 0 0 1 478.078 606)"/><path d="M45.2012 30.7554C45.2677 30.6223 45.4009 30.4891 45.534 30.4226 45.6671 30.356 45.8669 30.2894 46 30.2894 46.1997 30.2894 46.3328 30.356 46.466 30.4226 46.5991 30.4891 46.6657 30.6223 46.7323 30.822 46.7988 30.9551 46.8654 31.1548 46.8654 31.3546 46.8654 31.5543 46.7988 31.754 46.7323 31.8871 46.6657 32.0203 46.5326 32.1534 46.466 32.2865 46.3328 32.3531 46.1997 32.4197 46 32.4197 45.8003 32.4197 45.6671 32.3531 45.534 32.2865 45.4009 32.22 45.2677 32.0868 45.2012 31.9537 45.1346 31.8205 45.068 31.6208 45.068 31.4211 45.068 31.0883 45.1346 30.9551 45.2012 30.7554ZM45.4009 31.754C45.4674 31.8871 45.534 31.9537 45.6671 32.0203 45.8003 32.0868 45.9334 32.0868 46.0666 32.0868 46.1997 32.0868 46.3328 32.0203 46.3994 31.9537 46.466 31.8871 46.5991 31.754 46.6657 31.6874 46.7323 31.5543 46.7323 31.4211 46.7323 31.288 46.7323 31.1548 46.6657 30.9551 46.6657 30.8886 46.5991 30.7554 46.5326 30.6889 46.3994 30.6223 46.2663 30.5557 46.1997 30.4891 46.0666 30.4891 45.9334 30.4891 45.8003 30.4891 45.6671 30.5557 45.534 30.6223 45.4674 30.6889 45.4009 30.822 45.3343 30.9551 45.2677 31.0883 45.2677 31.288 45.2677 31.4877 45.3343 31.6208 45.4009 31.754ZM46.9986 30.356 46.9986 32.3531 46.7988 32.3531 46.7988 30.356 46.9986 30.356Z" fill="#1F1887" transform="matrix(1.00549 0 0 1 478.078 606)"/><path d="M48.7959 30.6223C48.7294 30.5557 48.5962 30.4891 48.4631 30.4891 48.33 30.4891 48.2634 30.4891 48.1302 30.5557 48.0637 30.6223 47.9971 30.6889 47.9305 30.7554 47.864 30.822 47.864 30.9551 47.864 31.0883L47.864 32.2865 47.6643 32.2865 47.6643 30.2894 47.864 30.2894 47.864 30.6889C47.9305 30.5557 47.9971 30.4226 48.1302 30.356 48.2634 30.2894 48.3965 30.2229 48.5297 30.2229 48.7294 30.2229 48.8625 30.2894 48.9957 30.4226 49.1288 30.5557 49.1288 30.7554 49.1288 30.9551L49.1288 32.2865 48.9291 32.2865 48.9291 31.0217C48.9291 30.8886 48.8625 30.7554 48.7959 30.6223Z" fill="#1F1887" transform="matrix(1.00549 0 0 1 478.078 606)"/><path d="M49.9942 31.754C50.0608 31.8871 50.1274 31.9537 50.2605 32.0203 50.3936 32.0868 50.5268 32.1534 50.6599 32.1534 50.7931 32.1534 50.8596 32.1534 50.9262 32.0868 50.9928 32.0868 51.1259 32.0203 51.1925 31.9537 51.259 31.8871 51.3256 31.8205 51.3256 31.8205L51.3256 32.0868C51.259 32.1534 51.1925 32.22 51.0593 32.2865 50.9262 32.3531 50.7931 32.3531 50.6599 32.3531 50.4602 32.3531 50.2605 32.2865 50.1274 32.22 49.9942 32.1534 49.8611 32.0203 49.7945 31.8205 49.7279 31.6874 49.6614 31.4877 49.6614 31.288 49.6614 31.0883 49.7279 30.8886 49.7945 30.7554 49.8611 30.6223 49.9942 30.4891 50.1274 30.356 50.2605 30.2894 50.4602 30.2229 50.6599 30.2229 50.7931 30.2229 50.9262 30.2229 51.0593 30.2894 51.1925 30.356 51.259 30.4226 51.3256 30.4891L51.3256 30.7554C51.3256 30.6889 51.259 30.6223 51.1925 30.6223 51.1259 30.5557 51.0593 30.5557 50.9262 30.4891 50.8596 30.4891 50.7265 30.4226 50.6599 30.4226 50.5268 30.4226 50.3936 30.4891 50.2605 30.5557 50.1274 30.6223 50.0608 30.7554 49.9942 30.822 49.9276 30.9551 49.8611 31.0883 49.8611 31.2214 49.8611 31.3546 49.9276 31.6208 49.9942 31.754Z" fill="#1F1887" transform="matrix(1.00549 0 0 1 478.078 606)"/><path d="M52.191 32.22C52.0579 32.1534 51.9247 32.0203 51.8582 31.8205 51.7916 31.6874 51.725 31.4877 51.725 31.288 51.725 31.0883 51.7916 30.8886 51.8582 30.7554 51.9247 30.6223 52.0579 30.4891 52.191 30.4226 52.3242 30.356 52.5239 30.2894 52.657 30.2894 52.8567 30.2894 52.9899 30.356 53.123 30.4226 53.2561 30.4891 53.3893 30.6223 53.4559 30.7554 53.5224 30.8886 53.589 31.0883 53.589 31.288 53.589 31.288 53.589 31.3546 53.589 31.3546 53.589 31.3546 53.589 31.4211 53.589 31.4211L51.9247 31.4211 51.9247 31.2214 53.4559 31.2214 53.3893 31.3546C53.3893 31.3546 53.3893 31.288 53.3893 31.288 53.3893 31.288 53.3893 31.2214 53.3893 31.2214 53.3893 31.0883 53.3893 30.9551 53.3227 30.8886 53.2561 30.7554 53.1896 30.6889 53.0564 30.6223 52.9233 30.5557 52.8567 30.5557 52.7236 30.5557 52.5904 30.5557 52.4573 30.6223 52.3242 30.6889 52.191 30.7554 52.1245 30.822 52.0579 30.9551 51.9913 31.0883 51.9913 31.2214 51.9913 31.4211 51.9913 31.6208 51.9913 31.754 52.0579 31.8871 52.1245 32.0203 52.191 32.0868 52.3242 32.1534 52.4573 32.22 52.5904 32.2865 52.7236 32.2865 52.8567 32.2865 52.9899 32.22 53.123 32.22 53.2561 32.1534 53.3227 32.0203 53.4559 31.8871L53.6556 32.0203C53.5224 32.22 53.3893 32.3531 53.2561 32.4197 53.123 32.4863 52.9233 32.5528 52.7236 32.5528 52.5239 32.3531 52.3242 32.2865 52.191 32.22Z" fill="#1F1887" transform="matrix(1.00549 0 0 1 478.078 606)"/><path d="M39.343 9.31983 40.741 9.31983C42.1389 9.31983 43.2706 10.4515 43.2706 11.8495 43.2706 13.2475 42.1389 14.3792 40.741 14.3792L39.343 14.3792 39.343 9.31983ZM40.741 13.8466C41.8727 13.8466 42.7381 12.9812 42.7381 11.8495 42.7381 10.7178 41.8727 9.85239 40.741 9.85239L39.8755 9.85239 39.8755 13.8466 40.741 13.8466Z" fill="#1F1887" transform="matrix(1.00549 0 0 1 478.078 606)"/><path d="M42.5383 17.508C42.5383 18.3068 41.9392 18.9059 41.1404 18.9059L39.8755 18.9059 39.8755 21.1693 39.343 21.1693 39.343 16.11 41.1404 16.11C41.9392 16.11 42.5383 16.7091 42.5383 17.508ZM42.0058 17.508C42.0058 16.9754 41.6064 16.6425 41.0738 16.6425L39.8755 16.6425 39.8755 18.4399 41.0738 18.4399C41.6064 18.3734 42.0058 18.0405 42.0058 17.508Z" fill="#1F1887" transform="matrix(1.00549 0 0 1 478.078 606)"/><path d="M22.2344 0 0 9.98553 0 40.3415 8.72069 45.9334 30.8886 35.9479 30.8886 5.65847 22.2344 0ZM8.72069 36.4139 8.72069 15.5774 22.2344 9.12012 22.2344 30.1563 8.72069 36.4139Z" fill="#2A18A3" transform="matrix(1.00549 0 0 1 478.078 606)"/><path d="M22.2344 0 22.2344 9.18669 8.72069 15.5774 0 9.98553Z" fill="#3128B3" transform="matrix(1.00549 0 0 1 478.078 606)"/><path d="M8.72069 46 0 40.3415 0 9.98553 8.72069 15.5774Z" fill="#1F1887" transform="matrix(1.00549 0 0 1 478.078 606)"/><path d="M22.2344 0 22.2344 30.2229 30.8886 36.0145 30.8886 5.65847Z" fill="#2A18A3" transform="matrix(1.00549 0 0 1 478.078 606)"/><path d="M8.72069 46 30.8886 36.0145 22.2344 30.2229 8.72069 36.4139Z" fill="#3128B3" transform="matrix(1.00549 0 0 1 478.078 606)"/><path d="M22.301 30.2229 30.9551 36.0145 30.9551 26.2287Z" fill="#87DAE1" transform="matrix(1.00549 0 0 1 478.078 606)"/></g></svg>